# xmcd CD database file
#
# Track frame offsets:
#	150
#	14210
#	27971
#	40861
#	54725
#	69861
#	88181
#	100362
#	116308
#	131060
#	145213
#	159444
#	171760
#	184393
#
# Disc length: 2645 seconds
#
# Revision: 0
# Processed by: cddbd v1.5.2PL0 Copyright (c) Steve Scherf et al.
# Submitted via: CDex 1.51
#
DISCID=c40a530e
DTITLE=Count Basie - Count Basie The Album-Most Famous Hits
DYEAR=2002
DGENRE=Jazz
TTITLE0=Swinging the Blues
TTITLE1=Sent For Your Yesterday
TTITLE2=Shorty George
TTITLE3=All Of Me
TTITLE4=Broadway
TTITLE5=Lester Leaps In
TTITLE6=April In Paris
TTITLE7=Ain't Misbehavin
TTITLE8=I Got It Bad
TTITLE9=Every Tub
TTITLE10=Fiesta In Blue
TTITLE11=I Want A Little Bril
TTITLE12=Platters Brains
TTITLE13=Rok A Bye Basie
EXTD=YEAR: 2002
EXTT0=
EXTT1=
EXTT2=
EXTT3=
EXTT4=
EXTT5=
EXTT6=
EXTT7=
EXTT8=
EXTT9=
EXTT10=
EXTT11=
EXTT12=
EXTT13=
PLAYORDER=
